<svg width="718" height="92" viewBox="0 0 718 92" fill="none" xmlns="http://www.w3.org/2000/svg">
<path d="M0.0644531 39.4258C4.13346 39.4258 6.96549 38.612 8.56055 36.9844C10.1556 35.3242 10.9531 32.6712 10.9531 29.0254V20.7246C10.9531 16.3626 11.5553 12.8633 12.7598 10.2266C13.9642 7.55729 15.6569 5.55534 17.8379 4.2207C20.0514 2.85352 22.6556 1.94206 25.6504 1.48633C28.6777 1.0306 31.9818 0.802734 35.5625 0.802734V12.1797C31.3307 12.1471 28.4987 12.9609 27.0664 14.6211C25.6341 16.2487 24.918 18.7878 24.918 22.2383V32.6387C24.918 34.3965 24.625 36.1217 24.0391 37.8145C23.4531 39.5072 22.3301 41.0371 20.6699 42.4043C19.0098 43.7389 16.5846 44.8132 13.3945 45.627V46.7988C16.5846 47.6126 19.0098 48.7031 20.6699 50.0703C22.3301 51.4375 23.4531 52.9674 24.0391 54.6602C24.625 56.3529 24.918 58.0781 24.918 59.8359V70.1875C24.918 73.638 25.6341 76.1934 27.0664 77.8535C28.4987 79.4811 31.3307 80.2949 35.5625 80.2949V91.623C31.9818 91.623 28.6777 91.3952 25.6504 90.9395C22.6556 90.4837 20.0514 89.5723 17.8379 88.2051C15.6569 86.8704 13.9642 84.8848 12.7598 82.248C11.5553 79.6113 10.9531 76.0957 10.9531 71.7012V63.4004C10.9531 59.7546 10.1556 57.1178 8.56055 55.4902C6.96549 53.8301 4.13346 53 0.0644531 53V39.4258ZM57.291 78L42.4473 23.4102H57.7305L66.2266 60.1289H66.666L75.5527 23.4102H90.4941L99.4785 59.8848H99.9668L108.268 23.4102H123.551L108.707 78H92.6914L83.3164 43.6738H82.6816L73.3066 78H57.291ZM156.461 79.0742C150.862 79.0742 146.044 77.9349 142.008 75.6562C137.971 73.3776 134.863 70.1387 132.682 65.9395C130.501 61.7077 129.41 56.7109 129.41 50.9492C129.41 45.3503 130.484 40.4349 132.633 36.2031C134.814 31.9714 137.874 28.6673 141.812 26.291C145.751 23.9147 150.39 22.7266 155.729 22.7266C160.546 22.7266 164.892 23.752 168.766 25.8027C172.672 27.8535 175.764 30.9297 178.043 35.0312C180.354 39.1328 181.51 44.276 181.51 50.4609V54.5625H144.303C144.465 58.6966 145.67 61.9355 147.916 64.2793C150.162 66.623 153.092 67.7949 156.705 67.7949C159.212 67.7949 161.36 67.2578 163.15 66.1836C164.973 65.1094 166.275 63.5469 167.057 61.4961L181.021 62.4238C179.947 67.4368 177.262 71.4733 172.965 74.5332C168.701 77.5605 163.199 79.0742 156.461 79.0742ZM144.4 45.2363H167.008C166.65 41.7858 165.543 39.0514 163.688 37.0332C161.832 35.015 159.228 34.0059 155.875 34.0059C152.49 34.0059 149.804 35.0638 147.818 37.1797C145.865 39.263 144.726 41.9486 144.4 45.2363ZM206.607 5.24609V78H191.471V5.24609H206.607ZM233.854 5.24609V78H218.717V5.24609H233.854ZM278.824 78.9766C272.346 78.9766 266.552 77.5117 261.441 74.582C256.331 71.6523 252.294 67.4043 249.332 61.8379C246.402 56.2715 244.938 49.5495 244.938 41.6719C244.938 33.7292 246.419 26.9746 249.381 21.4082C252.376 15.8418 256.428 11.5938 261.539 8.66406C266.682 5.73438 272.444 4.26953 278.824 4.26953C284.456 4.26953 289.518 5.3112 294.01 7.39453C298.535 9.47786 302.229 12.4889 305.094 16.4277C307.958 20.3665 309.716 25.1354 310.367 30.7344H294.84C294.254 26.7305 292.545 23.5892 289.713 21.3105C286.881 18.9993 283.365 17.8438 279.166 17.8438C273.567 17.8438 269.059 19.9271 265.641 24.0938C262.223 28.2279 260.514 34.0872 260.514 41.6719C260.514 49.4193 262.223 55.3112 265.641 59.3477C269.091 63.3841 273.583 65.4023 279.117 65.4023C283.186 65.4023 286.637 64.3281 289.469 62.1797C292.333 60.0312 294.124 57.0202 294.84 53.1465H310.367C309.814 57.6061 308.219 61.8053 305.582 65.7441C302.978 69.6829 299.413 72.873 294.889 75.3145C290.396 77.7559 285.042 78.9766 278.824 78.9766ZM336.295 46.457V78H321.158V5.24609H335.807V33.127H336.49C337.727 29.9043 339.713 27.3652 342.447 25.5098C345.214 23.6543 348.665 22.7266 352.799 22.7266C358.463 22.7266 363.02 24.5495 366.471 28.1953C369.921 31.8411 371.646 36.8704 371.646 43.2832V78H356.559V45.9688C356.559 42.5833 355.712 39.9629 354.02 38.1074C352.327 36.2194 349.902 35.2754 346.744 35.2754C343.684 35.2754 341.178 36.2682 339.225 38.2539C337.271 40.207 336.295 42.9414 336.295 46.457ZM408.609 79.0742C403.01 79.0742 398.193 77.9349 394.156 75.6562C390.12 73.3776 387.011 70.1387 384.83 65.9395C382.649 61.7077 381.559 56.7109 381.559 50.9492C381.559 45.3503 382.633 40.4349 384.781 36.2031C386.962 31.9714 390.022 28.6673 393.961 26.291C397.9 23.9147 402.538 22.7266 407.877 22.7266C412.695 22.7266 417.04 23.752 420.914 25.8027C424.82 27.8535 427.913 30.9297 430.191 35.0312C432.503 39.1328 433.658 44.276 433.658 50.4609V54.5625H396.451C396.614 58.6966 397.818 61.9355 400.064 64.2793C402.311 66.623 405.24 67.7949 408.854 67.7949C411.36 67.7949 413.508 67.2578 415.299 66.1836C417.122 65.1094 418.424 63.5469 419.205 61.4961L433.17 62.4238C432.096 67.4368 429.41 71.4733 425.113 74.5332C420.849 77.5605 415.348 79.0742 408.609 79.0742ZM396.549 45.2363H419.156C418.798 41.7858 417.691 39.0514 415.836 37.0332C413.98 35.015 411.376 34.0059 408.023 34.0059C404.638 34.0059 401.952 35.0638 399.967 37.1797C398.014 39.263 396.874 41.9486 396.549 45.2363ZM468.229 79.0742C462.63 79.0742 457.828 77.8861 453.824 75.5098C449.82 73.1335 446.744 69.8294 444.596 65.5977C442.48 61.3659 441.422 56.4831 441.422 50.9492C441.422 45.3503 442.496 40.4349 444.645 36.2031C446.826 31.9714 449.918 28.6673 453.922 26.291C457.926 23.9147 462.678 22.7266 468.18 22.7266C472.932 22.7266 477.099 23.5892 480.68 25.3145C484.26 27.0397 487.092 29.4648 489.176 32.5898C491.259 35.7148 492.398 39.3932 492.594 43.625H478.336C477.913 40.9232 476.855 38.7422 475.162 37.082C473.469 35.3893 471.223 34.543 468.424 34.543C464.908 34.543 462.092 35.959 459.977 38.791C457.861 41.5905 456.803 45.5781 456.803 50.7539C456.803 55.9622 457.844 60.015 459.928 62.9121C462.044 65.8092 464.876 67.2578 468.424 67.2578C471.028 67.2578 473.225 66.444 475.016 64.8164C476.806 63.1888 477.913 60.9102 478.336 57.9805H492.594C492.366 62.1471 491.243 65.8255 489.225 69.0156C487.206 72.1732 484.407 74.6471 480.826 76.4375C477.278 78.1953 473.079 79.0742 468.229 79.0742ZM502.408 5.24609H517.545V44.1621H518.375L535.807 23.4102H553.189L532.975 47.0918L554.166 78H536.49L521.646 55.9785L517.545 60.6172V78H502.408V5.24609ZM585.465 79.0742C579.866 79.0742 575.048 77.9349 571.012 75.6562C566.975 73.3776 563.867 70.1387 561.686 65.9395C559.505 61.7077 558.414 56.7109 558.414 50.9492C558.414 45.3503 559.488 40.4349 561.637 36.2031C563.818 31.9714 566.878 28.6673 570.816 26.291C574.755 23.9147 579.394 22.7266 584.732 22.7266C589.55 22.7266 593.896 23.752 597.77 25.8027C601.676 27.8535 604.768 30.9297 607.047 35.0312C609.358 39.1328 610.514 44.276 610.514 50.4609V54.5625H573.307C573.469 58.6966 574.674 61.9355 576.92 64.2793C579.166 66.623 582.096 67.7949 585.709 67.7949C588.215 67.7949 590.364 67.2578 592.154 66.1836C593.977 65.1094 595.279 63.5469 596.061 61.4961L610.025 62.4238C608.951 67.4368 606.266 71.4733 601.969 74.5332C597.704 77.5605 592.203 79.0742 585.465 79.0742ZM573.404 45.2363H596.012C595.654 41.7858 594.547 39.0514 592.691 37.0332C590.836 35.015 588.232 34.0059 584.879 34.0059C581.493 34.0059 578.808 35.0638 576.822 37.1797C574.869 39.263 573.73 41.9486 573.404 45.2363ZM640.445 78.8789C636.279 78.8789 632.519 77.8047 629.166 75.6562C625.813 73.5078 623.16 70.3503 621.207 66.1836C619.254 61.9844 618.277 56.8574 618.277 50.8027C618.277 44.5527 619.286 39.3444 621.305 35.1777C623.323 31.0111 626.008 27.9023 629.361 25.8516C632.714 23.7682 636.376 22.7266 640.348 22.7266C643.408 22.7266 645.963 23.2474 648.014 24.2891C650.064 25.2982 651.725 26.5677 652.994 28.0977C654.264 29.6276 655.224 31.1413 655.875 32.6387H656.314V5.24609H671.451V78H656.559V69.2598H655.875C655.191 70.7572 654.199 72.2546 652.896 73.752C651.594 75.2168 649.918 76.4375 647.867 77.4141C645.849 78.3906 643.375 78.8789 640.445 78.8789ZM656.656 50.7539C656.656 45.8711 655.663 41.9811 653.678 39.084C651.692 36.1868 648.86 34.7383 645.182 34.7383C641.438 34.7383 638.59 36.2194 636.637 39.1816C634.716 42.1439 633.756 46.0013 633.756 50.7539C633.756 55.474 634.732 59.3477 636.686 62.375C638.639 65.3698 641.471 66.8672 645.182 66.8672C648.827 66.8672 651.643 65.3861 653.629 62.4238C655.647 59.4616 656.656 55.5716 656.656 50.7539ZM717.887 53C713.85 53 711.018 53.8301 709.391 55.4902C707.796 57.1178 706.998 59.7546 706.998 63.4004V71.7012C706.998 76.0957 706.396 79.6113 705.191 82.248C703.987 84.8848 702.278 86.8704 700.064 88.2051C697.883 89.5723 695.279 90.4837 692.252 90.9395C689.257 91.3952 685.969 91.623 682.389 91.623V80.2949C686.62 80.2949 689.436 79.4811 690.836 77.8535C692.268 76.1934 692.984 73.638 692.984 70.1875V59.8359C692.984 58.0781 693.277 56.3529 693.863 54.6602C694.482 52.9674 695.621 51.4375 697.281 50.0703C698.941 48.7031 701.367 47.6126 704.557 46.7988V45.627C701.367 44.8132 698.941 43.7389 697.281 42.4043C695.621 41.0371 694.482 39.5072 693.863 37.8145C693.277 36.1217 692.984 34.3965 692.984 32.6387V22.2383C692.984 18.7878 692.268 16.2487 690.836 14.6211C689.436 12.9609 686.62 12.1471 682.389 12.1797V0.802734C685.969 0.802734 689.257 1.0306 692.252 1.48633C695.279 1.94206 697.883 2.85352 700.064 4.2207C702.278 5.55534 703.987 7.55729 705.191 10.2266C706.396 12.8633 706.998 16.3626 706.998 20.7246V29.0254C706.998 32.6712 707.796 35.3242 709.391 36.9844C711.018 38.612 713.85 39.4258 717.887 39.4258V53Z" fill="white"/>
</svg>
